<svg width="35" height="35" viewBox="0 0 35 35" fill="none" xmlns="http://www.w3.org/2000/svg">
<g clip-path="url(#clip0_1_917)">
<path d="M0 20.866V6.45882C0 2.88383 2.89575 0 6.45882 0H20.8541C28.4093 0 34.5344 6.12515 34.5344 13.6803V28.0756C34.5344 31.6506 31.6387 34.5344 28.0756 34.5344H13.6803C6.12515 34.5463 0 28.4212 0 20.866Z" fill="url(#paint0_linear_1_917)"/>
<path d="M10.6124 9.69408L16.7002 6.07141C17.0407 6.67066 17.2586 7.35163 17.3403 8.04621C17.422 8.74079 17.3676 9.44895 17.1905 10.1299C17.0135 10.8109 16.7002 11.451 16.2644 12.0094C15.8422 12.5677 15.3111 13.0444 14.7118 13.3849L8.63765 16.994C7.95669 15.7683 7.77963 14.3246 8.14735 12.9491C8.52869 11.5872 9.41394 10.4159 10.6124 9.69408Z" fill="white"/>
<path d="M9.53673 18.8052L17.9262 13.8206C19.1246 13.1124 20.5547 12.9081 21.8893 13.2622C23.224 13.6163 24.3544 14.5016 25.0354 15.7137L16.6459 20.6983C15.4475 21.4065 14.0174 21.6108 12.6828 21.2567C11.3481 20.9026 10.2177 20.0173 9.53673 18.8052Z" fill="white"/>
<path d="M25.8938 17.5387L19.8196 21.1478C19.2204 21.5019 18.6892 21.9786 18.2807 22.5234C17.8448 23.0818 17.5316 23.7219 17.3546 24.4028C17.1775 25.0838 17.123 25.792 17.2047 26.4865C17.2865 27.1811 17.5044 27.8621 17.8448 28.4613L23.9326 24.8387C25.1311 24.1168 26.0164 22.9456 26.3841 21.5837C26.7518 20.2081 26.5748 18.7644 25.8938 17.5387Z" fill="white"/>
</g>
<defs>
<linearGradient id="paint0_linear_1_917" x1="-7.45029e-05" y1="17.2724" x2="34.5436" y2="17.2725" gradientUnits="userSpaceOnUse">
<stop offset="0.00184478" stop-color="#00D95B"/>
<stop offset="1" stop-color="#61C91E"/>
</linearGradient>
<clipPath id="clip0_1_917">
<rect width="34.5344" height="34.5344" fill="white"/>
</clipPath>
</defs>
</svg>
