<svg width="90" height="25" viewBox="0 0 90 25" fill="none" xmlns="http://www.w3.org/2000/svg">
<g id="Frame" clip-path="url(#clip0_1462_2772)">
<path id="Vector" d="M14.876 24.5H5.20661C2.33108 24.5 0 22.1495 0 19.25V9.5C0 4.52944 3.99613 0.5 8.92562 0.5H18.595C21.4706 0.5 23.8017 2.85051 23.8017 5.75V15.5C23.8017 20.4706 19.8055 24.5 14.876 24.5Z" fill="url(#paint0_linear_1462_2772)"/>
<path id="Vector_2" d="M31.873 18.6806C31.3613 18.6806 30.8198 18.6266 30.2485 18.5186C29.6773 18.4106 29.1656 18.2246 28.7133 17.9606C28.5229 17.8406 28.386 17.7026 28.3027 17.5466C28.2313 17.3786 28.2016 17.2166 28.2135 17.0606C28.2373 16.8926 28.2968 16.7486 28.392 16.6286C28.4991 16.5086 28.63 16.4306 28.7847 16.3946C28.9513 16.3586 29.1299 16.3886 29.3203 16.4846C29.7963 16.7126 30.2426 16.8746 30.6591 16.9706C31.0756 17.0546 31.4862 17.0966 31.8908 17.0966C32.4621 17.0966 32.8846 17.0006 33.1583 16.8086C33.4439 16.6046 33.5867 16.3406 33.5867 16.0166C33.5867 15.7406 33.4915 15.5306 33.3011 15.3866C33.1226 15.2306 32.8489 15.1166 32.4799 15.0446L30.6948 14.7026C29.957 14.5586 29.3917 14.2886 28.9989 13.8926C28.6181 13.4846 28.4277 12.9626 28.4277 12.3266C28.4277 11.7506 28.5824 11.2526 28.8918 10.8326C29.2132 10.4126 29.6535 10.0886 30.2128 9.86055C30.7722 9.63255 31.4148 9.51855 32.1408 9.51855C32.6644 9.51855 33.1523 9.57855 33.6046 9.69855C34.0687 9.80655 34.515 9.98055 34.9434 10.2206C35.1219 10.3166 35.2409 10.4426 35.3004 10.5986C35.3718 10.7546 35.3897 10.9166 35.354 11.0846C35.3183 11.2406 35.2469 11.3846 35.1398 11.5166C35.0327 11.6366 34.8958 11.7146 34.7292 11.7506C34.5745 11.7746 34.396 11.7386 34.1937 11.6426C33.8247 11.4506 33.4677 11.3126 33.1226 11.2286C32.7894 11.1446 32.468 11.1026 32.1586 11.1026C31.5755 11.1026 31.1411 11.2046 30.8555 11.4086C30.5818 11.6126 30.4449 11.8826 30.4449 12.2186C30.4449 12.4706 30.5282 12.6806 30.6948 12.8486C30.8614 13.0166 31.1173 13.1306 31.4624 13.1906L33.2475 13.5326C34.0211 13.6766 34.6042 13.9406 34.997 14.3246C35.4016 14.7086 35.6039 15.2246 35.6039 15.8726C35.6039 16.7486 35.2647 17.4386 34.5864 17.9426C33.908 18.4346 33.0036 18.6806 31.873 18.6806Z" fill="white"/>
<path id="Vector_3" d="M38.5033 21.8846C38.1462 21.8846 37.8725 21.7886 37.6821 21.5966C37.4917 21.4046 37.3965 21.1226 37.3965 20.7506V10.6886C37.3965 10.3166 37.4917 10.0346 37.6821 9.84255C37.8725 9.65055 38.1403 9.55455 38.4854 9.55455C38.8424 9.55455 39.1162 9.65055 39.3066 9.84255C39.497 10.0346 39.5922 10.3166 39.5922 10.6886V12.0926L39.3958 11.5526C39.5743 10.9406 39.9373 10.4486 40.4847 10.0766C41.0441 9.70455 41.6927 9.51855 42.4305 9.51855C43.1922 9.51855 43.8586 9.70455 44.4299 10.0766C45.013 10.4486 45.4652 10.9766 45.7866 11.6606C46.1079 12.3326 46.2685 13.1426 46.2685 14.0906C46.2685 15.0266 46.1079 15.8426 45.7866 16.5386C45.4652 17.2226 45.019 17.7506 44.4477 18.1226C43.8765 18.4946 43.2041 18.6806 42.4305 18.6806C41.7046 18.6806 41.0679 18.5006 40.5205 18.1406C39.973 17.7686 39.6041 17.2886 39.4137 16.7006H39.6279V20.7506C39.6279 21.1226 39.5267 21.4046 39.3244 21.5966C39.134 21.7886 38.8603 21.8846 38.5033 21.8846ZM41.8057 16.9706C42.2461 16.9706 42.6328 16.8626 42.9661 16.6466C43.2993 16.4306 43.5552 16.1126 43.7337 15.6926C43.9241 15.2606 44.0193 14.7266 44.0193 14.0906C44.0193 13.1306 43.817 12.4166 43.4124 11.9486C43.0077 11.4686 42.4722 11.2286 41.8057 11.2286C41.3654 11.2286 40.9786 11.3366 40.6454 11.5526C40.3122 11.7566 40.0504 12.0746 39.86 12.5066C39.6814 12.9266 39.5922 13.4546 39.5922 14.0906C39.5922 15.0386 39.7945 15.7586 40.1991 16.2506C40.6038 16.7306 41.1393 16.9706 41.8057 16.9706Z" fill="white"/>
<path id="Vector_4" d="M49.246 18.6445C48.8771 18.6445 48.5914 18.5485 48.3891 18.3565C48.1987 18.1525 48.1035 17.8645 48.1035 17.4925V10.6885C48.1035 10.3165 48.1987 10.0345 48.3891 9.84247C48.5795 9.65047 48.8473 9.55447 49.1924 9.55447C49.5376 9.55447 49.8053 9.65047 49.9957 9.84247C50.1862 10.0345 50.2814 10.3165 50.2814 10.6885V11.8225H50.1029C50.2695 11.1025 50.5967 10.5565 51.0847 10.1845C51.5726 9.81247 52.2212 9.59047 53.0305 9.51847C53.2804 9.49447 53.4767 9.56047 53.6195 9.71647C53.7743 9.86047 53.8635 10.0885 53.8873 10.4005C53.9111 10.7005 53.8397 10.9465 53.6731 11.1385C53.5184 11.3185 53.2804 11.4265 52.9591 11.4625L52.5663 11.4985C51.8404 11.5705 51.2929 11.7985 50.924 12.1825C50.5551 12.5545 50.3706 13.0825 50.3706 13.7665V17.4925C50.3706 17.8645 50.2754 18.1525 50.085 18.3565C49.8946 18.5485 49.6149 18.6445 49.246 18.6445Z" fill="white"/>
<path id="Vector_5" d="M58.9355 18.6806C58.031 18.6806 57.2455 18.4946 56.5791 18.1226C55.9127 17.7506 55.395 17.2226 55.026 16.5386C54.6571 15.8426 54.4727 15.0266 54.4727 14.0906C54.4727 13.3826 54.5738 12.7526 54.7761 12.2006C54.9903 11.6366 55.2938 11.1566 55.6865 10.7606C56.0793 10.3526 56.5494 10.0466 57.0968 9.84255C57.6442 9.62655 58.2571 9.51855 58.9355 9.51855C59.8399 9.51855 60.6254 9.70455 61.2918 10.0766C61.9583 10.4486 62.476 10.9766 62.8449 11.6606C63.2138 12.3446 63.3983 13.1546 63.3983 14.0906C63.3983 14.7986 63.2912 15.4346 63.077 15.9986C62.8746 16.5626 62.5771 17.0486 62.1844 17.4566C61.7917 17.8526 61.3216 18.1586 60.7741 18.3746C60.2267 18.5786 59.6138 18.6806 58.9355 18.6806ZM58.9355 16.9706C59.3758 16.9706 59.7626 16.8626 60.0958 16.6466C60.429 16.4306 60.6849 16.1126 60.8634 15.6926C61.0538 15.2606 61.149 14.7266 61.149 14.0906C61.149 13.1306 60.9467 12.4166 60.5421 11.9486C60.1375 11.4686 59.6019 11.2286 58.9355 11.2286C58.4951 11.2286 58.1084 11.3366 57.7751 11.5526C57.4419 11.7566 57.1801 12.0746 56.9897 12.5066C56.8112 12.9266 56.7219 13.4546 56.7219 14.0906C56.7219 15.0386 56.9242 15.7586 57.3289 16.2506C57.7335 16.7306 58.269 16.9706 58.9355 16.9706Z" fill="white"/>
<path id="Vector_6" d="M68.4007 18.6807C67.6748 18.6807 67.0738 18.5487 66.5978 18.2847C66.1217 18.0087 65.7647 17.6007 65.5267 17.0607C65.3006 16.5207 65.1875 15.8487 65.1875 15.0447V10.6887C65.1875 10.3047 65.2827 10.0227 65.4731 9.84269C65.6635 9.65069 65.9373 9.55469 66.2943 9.55469C66.6513 9.55469 66.925 9.65069 67.1154 9.84269C67.3177 10.0227 67.4189 10.3047 67.4189 10.6887V15.0807C67.4189 15.7047 67.5439 16.1667 67.7938 16.4667C68.0437 16.7667 68.4424 16.9167 68.9898 16.9167C69.5849 16.9167 70.0728 16.7127 70.4536 16.3047C70.8344 15.8847 71.0249 15.3327 71.0249 14.6487V10.6887C71.0249 10.3047 71.1201 10.0227 71.3105 9.84269C71.5009 9.65069 71.7746 9.55469 72.1316 9.55469C72.4887 9.55469 72.7624 9.65069 72.9528 9.84269C73.1551 10.0227 73.2563 10.3047 73.2563 10.6887V17.4927C73.2563 18.2607 72.8933 18.6447 72.1673 18.6447C71.8222 18.6447 71.5544 18.5487 71.364 18.3567C71.1736 18.1527 71.0784 17.8647 71.0784 17.4927V16.1247L71.3283 16.6647C71.0784 17.3127 70.6976 17.8107 70.1858 18.1587C69.686 18.5067 69.091 18.6807 68.4007 18.6807Z" fill="white"/>
<path id="Vector_7" d="M79.5731 18.6807C78.7996 18.6807 78.151 18.5487 77.6273 18.2847C77.1156 18.0207 76.7348 17.6367 76.4848 17.1327C76.2349 16.6167 76.11 15.9807 76.11 15.2247V11.3907H75.1817C74.8961 11.3907 74.6759 11.3187 74.5212 11.1747C74.3664 11.0187 74.2891 10.8087 74.2891 10.5447C74.2891 10.2687 74.3664 10.0587 74.5212 9.91474C74.6759 9.77074 74.8961 9.69874 75.1817 9.69874H76.11V8.06074C76.11 7.68876 76.2052 7.40676 76.3956 7.21476C76.5979 7.02276 76.8776 6.92676 77.2346 6.92676C77.5916 6.92676 77.8653 7.02276 78.0558 7.21476C78.2462 7.40676 78.3414 7.68876 78.3414 8.06074V9.69874H80.2336C80.5192 9.69874 80.7394 9.77074 80.8941 9.91474C81.0488 10.0587 81.1262 10.2687 81.1262 10.5447C81.1262 10.8087 81.0488 11.0187 80.8941 11.1747C80.7394 11.3187 80.5192 11.3907 80.2336 11.3907H78.3414V15.0987C78.3414 15.6747 78.4663 16.1067 78.7162 16.3947C78.9662 16.6827 79.3708 16.8267 79.9301 16.8267C80.1324 16.8267 80.311 16.8087 80.4657 16.7727C80.6204 16.7367 80.7572 16.7127 80.8762 16.7007C81.0191 16.6887 81.1381 16.7367 81.2333 16.8447C81.3285 16.9407 81.3761 17.1447 81.3761 17.4567C81.3761 17.6967 81.3344 17.9127 81.2511 18.1047C81.1797 18.2847 81.0429 18.4107 80.8405 18.4827C80.6858 18.5307 80.4835 18.5727 80.2336 18.6087C79.9837 18.6567 79.7635 18.6807 79.5731 18.6807Z" fill="white"/>
<path id="Vector_8" d="M85.623 18.6806C85.1113 18.6806 84.5698 18.6266 83.9985 18.5186C83.4273 18.4106 82.9156 18.2246 82.4633 17.9606C82.2729 17.8406 82.1361 17.7026 82.0527 17.5466C81.9813 17.3786 81.9516 17.2166 81.9635 17.0606C81.9873 16.8926 82.0468 16.7486 82.142 16.6286C82.2491 16.5086 82.38 16.4306 82.5347 16.3946C82.7013 16.3586 82.8799 16.3886 83.0703 16.4846C83.5463 16.7126 83.9926 16.8746 84.4091 16.9706C84.8256 17.0546 85.2362 17.0966 85.6408 17.0966C86.2121 17.0966 86.6346 17.0006 86.9083 16.8086C87.1939 16.6046 87.3367 16.3406 87.3367 16.0166C87.3367 15.7406 87.2415 15.5306 87.0511 15.3866C86.8726 15.2306 86.5989 15.1166 86.2299 15.0446L84.4448 14.7026C83.707 14.5586 83.1417 14.2886 82.7489 13.8926C82.3681 13.4846 82.1777 12.9626 82.1777 12.3266C82.1777 11.7506 82.3324 11.2526 82.6418 10.8326C82.9632 10.4126 83.4035 10.0886 83.9628 9.86055C84.5222 9.63255 85.1648 9.51855 85.8908 9.51855C86.4144 9.51855 86.9023 9.57855 87.3546 9.69855C87.8187 9.80655 88.265 9.98055 88.6934 10.2206C88.8719 10.3166 88.9909 10.4426 89.0504 10.5986C89.1218 10.7546 89.1397 10.9166 89.104 11.0846C89.0683 11.2406 88.9969 11.3846 88.8898 11.5166C88.7827 11.6366 88.6458 11.7146 88.4792 11.7506C88.3245 11.7746 88.146 11.7386 87.9437 11.6426C87.5747 11.4506 87.2177 11.3126 86.8726 11.2286C86.5394 11.1446 86.218 11.1026 85.9086 11.1026C85.3255 11.1026 84.8911 11.2046 84.6055 11.4086C84.3318 11.6126 84.1949 11.8826 84.1949 12.2186C84.1949 12.4706 84.2782 12.6806 84.4448 12.8486C84.6114 13.0166 84.8673 13.1306 85.2124 13.1906L86.9975 13.5326C87.7711 13.6766 88.3542 13.9406 88.747 14.3246C89.1516 14.7086 89.3539 15.2246 89.3539 15.8726C89.3539 16.7486 89.0147 17.4386 88.3364 17.9426C87.658 18.4346 86.7536 18.6806 85.623 18.6806Z" fill="white"/>
<path id="Vector_9" d="M7.85603 7.73526C8.93543 7.12721 11.6644 5.62721 11.7965 4.62083C11.9288 3.61446 12.158 6.2064 12.2109 6.65974C12.2638 7.11307 12.2285 7.57526 12.1139 8.01974C11.9993 8.46419 11.7965 8.88194 11.5145 9.24636C11.2412 9.61086 10.4228 10.1272 10.4228 10.1272C10.4228 10.1272 8.93521 10.8772 6.57783 12.4997C6.57783 12.4997 6.02245 10.7575 6.26047 9.85971C6.5073 8.97081 6.77667 8.34329 7.85603 7.73526Z" fill="white"/>
<path id="Vector_10" d="M7.0332 13.3958L12.4635 10.1425C13.2392 9.68026 14.1649 9.54699 15.0288 9.77806C15.8927 10.0092 16.6244 10.587 17.0651 11.3781L11.6349 14.6314C10.8591 15.0936 9.93349 15.227 9.06956 14.9959C8.20564 14.7647 7.47396 14.1869 7.0332 13.3958Z" fill="white"/>
<path id="Vector_11" d="M16.2792 17.0116C15.1998 17.6196 12.471 19.1196 12.3387 20.126C12.2066 21.1324 11.9773 18.5405 11.9244 18.0871C11.8715 17.6338 11.9068 17.1716 12.0214 16.7271C12.136 16.2827 12.3387 15.8649 12.6209 15.5005C12.8941 15.136 13.7125 14.6196 13.7125 14.6196C13.7125 14.6196 15.2001 13.8696 17.5575 12.2471C17.5575 12.2471 18.1129 13.9893 17.8748 14.8871C17.6281 15.776 17.3586 16.4036 16.2792 17.0116Z" fill="white"/>
</g>
<defs>
<linearGradient id="paint0_linear_1462_2772" x1="-0.00265799" y1="12.4998" x2="23.8054" y2="12.4998" gradientUnits="userSpaceOnUse">
<stop offset="0.00184478" stop-color="#00D95B"/>
<stop offset="1" stop-color="#61C91E"/>
</linearGradient>
<clipPath id="clip0_1462_2772">
<rect width="90" height="24" fill="white" transform="translate(0 0.5)"/>
</clipPath>
</defs>
</svg>