
<svg width="121" height="32" viewBox="0 0 121 32" fill="none" xmlns="http://www.w3.org/2000/svg">
<path d="M20 32H7C3.13401 32 0 28.866 0 25V12C0 5.37258 5.37258 0 12 0H25C28.866 0 32 3.13401 32 7V20C32 26.6274 26.6274 32 20 32Z" fill="url(#paint0_linear_6_47)"/>
<path d="M42.856 24.2401C42.168 24.2401 41.44 24.1681 40.672 24.0241C39.904 23.8801 39.216 23.6321 38.608 23.2801C38.352 23.1201 38.168 22.9361 38.056 22.7281C37.96 22.5041 37.92 22.2881 37.936 22.0801C37.968 21.8561 38.048 21.6641 38.176 21.5041C38.32 21.3441 38.496 21.2401 38.704 21.1921C38.928 21.1441 39.168 21.1841 39.424 21.3121C40.064 21.6161 40.664 21.8321 41.224 21.9601C41.784 22.0721 42.336 22.1281 42.88 22.1281C43.648 22.1281 44.216 22.0001 44.584 21.7441C44.968 21.4721 45.16 21.1201 45.16 20.6881C45.16 20.3201 45.032 20.0401 44.776 19.8481C44.536 19.6401 44.168 19.4881 43.672 19.3921L41.272 18.9361C40.28 18.7441 39.52 18.3841 38.992 17.8561C38.48 17.3121 38.224 16.6161 38.224 15.7681C38.224 15.0001 38.432 14.3361 38.848 13.7761C39.28 13.2161 39.872 12.7841 40.624 12.4801C41.376 12.1761 42.24 12.0241 43.216 12.0241C43.92 12.0241 44.576 12.1041 45.184 12.2641C45.808 12.4081 46.408 12.6401 46.984 12.9601C47.224 13.0881 47.384 13.2561 47.464 13.4641C47.56 13.6721 47.584 13.8881 47.536 14.1121C47.488 14.3201 47.392 14.5121 47.248 14.6881C47.104 14.8481 46.92 14.9521 46.696 15.0001C46.488 15.0321 46.248 14.9841 45.976 14.8561C45.48 14.6001 45 14.4161 44.536 14.3041C44.088 14.1921 43.656 14.1361 43.24 14.1361C42.456 14.1361 41.872 14.2721 41.488 14.5441C41.12 14.8161 40.936 15.1761 40.936 15.6241C40.936 15.9601 41.048 16.2401 41.272 16.4641C41.496 16.6881 41.84 16.8401 42.304 16.9201L44.704 17.3761C45.744 17.5681 46.528 17.9201 47.056 18.4321C47.6 18.9441 47.872 19.6321 47.872 20.4961C47.872 21.6641 47.416 22.5841 46.504 23.2561C45.592 23.9121 44.376 24.2401 42.856 24.2401Z" fill="black"/>
<path d="M51.7668 28.5121C51.2868 28.5121 50.9188 28.3841 50.6628 28.1281C50.4068 27.8721 50.2788 27.4961 50.2788 27.0001V13.5841C50.2788 13.0881 50.4068 12.7121 50.6628 12.4561C50.9188 12.2001 51.2788 12.0721 51.7428 12.0721C52.2228 12.0721 52.5908 12.2001 52.8468 12.4561C53.1028 12.7121 53.2308 13.0881 53.2308 13.5841V15.4561L52.9668 14.7361C53.2068 13.9201 53.6948 13.2641 54.4308 12.7681C55.1828 12.2721 56.0548 12.0241 57.0468 12.0241C58.0708 12.0241 58.9668 12.2721 59.7348 12.7681C60.5188 13.2641 61.1268 13.9681 61.5588 14.8801C61.9908 15.7761 62.2068 16.8561 62.2068 18.1201C62.2068 19.3681 61.9908 20.4561 61.5588 21.3841C61.1268 22.2961 60.5268 23.0001 59.7588 23.4961C58.9908 23.9921 58.0868 24.2401 57.0468 24.2401C56.0708 24.2401 55.2148 24.0001 54.4788 23.5201C53.7428 23.0241 53.2468 22.3841 52.9908 21.6001H53.2788V27.0001C53.2788 27.4961 53.1428 27.8721 52.8708 28.1281C52.6148 28.3841 52.2468 28.5121 51.7668 28.5121ZM56.2068 21.9601C56.7988 21.9601 57.3188 21.8161 57.7668 21.5281C58.2148 21.2401 58.5588 20.8161 58.7988 20.2561C59.0548 19.6801 59.1828 18.9681 59.1828 18.1201C59.1828 16.8401 58.9108 15.8881 58.3668 15.2641C57.8228 14.6241 57.1028 14.3041 56.2068 14.3041C55.6148 14.3041 55.0948 14.4481 54.6468 14.7361C54.1988 15.0081 53.8468 15.4321 53.5908 16.0081C53.3508 16.5681 53.2308 17.2721 53.2308 18.1201C53.2308 19.3841 53.5028 20.3441 54.0468 21.0001C54.5908 21.6401 55.3108 21.9601 56.2068 21.9601Z" fill="black"/>
<path d="M66.2054 24.1921C65.7094 24.1921 65.3254 24.0641 65.0534 23.8081C64.7974 23.5361 64.6694 23.1521 64.6694 22.6561V13.5841C64.6694 13.0881 64.7974 12.7121 65.0534 12.4561C65.3094 12.2001 65.6694 12.0721 66.1334 12.0721C66.5974 12.0721 66.9574 12.2001 67.2134 12.4561C67.4694 12.7121 67.5974 13.0881 67.5974 13.5841V15.0961H67.3574C67.5814 14.1361 68.0214 13.4081 68.6774 12.9121C69.3334 12.4161 70.2054 12.1201 71.2934 12.0241C71.6294 11.9921 71.8934 12.0801 72.0854 12.2881C72.2934 12.4801 72.4134 12.7841 72.4454 13.2001C72.4774 13.6001 72.3814 13.9281 72.1574 14.1841C71.9494 14.4241 71.6294 14.5681 71.1974 14.6161L70.6694 14.6641C69.6934 14.7601 68.9574 15.0641 68.4614 15.5761C67.9654 16.0721 67.7174 16.7761 67.7174 17.6881V22.6561C67.7174 23.1521 67.5894 23.5361 67.3334 23.8081C67.0774 24.0641 66.7014 24.1921 66.2054 24.1921Z" fill="black"/>
<path d="M79.2324 24.2401C78.0164 24.2401 76.9604 23.9921 76.0644 23.4961C75.1684 23.0001 74.4724 22.2961 73.9764 21.3841C73.4804 20.4561 73.2324 19.3681 73.2324 18.1201C73.2324 17.1761 73.3684 16.3361 73.6404 15.6001C73.9284 14.8481 74.3364 14.2081 74.8644 13.6801C75.3924 13.1361 76.0244 12.7281 76.7604 12.4561C77.4964 12.1681 78.3204 12.0241 79.2324 12.0241C80.4484 12.0241 81.5044 12.2721 82.4004 12.7681C83.2964 13.2641 83.9924 13.9681 84.4884 14.8801C84.9844 15.7921 85.2324 16.8721 85.2324 18.1201C85.2324 19.0641 85.0884 19.9121 84.8004 20.6641C84.5284 21.4161 84.1284 22.0641 83.6004 22.6081C83.0724 23.1361 82.4404 23.5441 81.7044 23.8321C80.9684 24.1041 80.1444 24.2401 79.2324 24.2401ZM79.2324 21.9601C79.8244 21.9601 80.3444 21.8161 80.7924 21.5281C81.2404 21.2401 81.5844 20.8161 81.8244 20.2561C82.0804 19.6801 82.2084 18.9681 82.2084 18.1201C82.2084 16.8401 81.9364 15.8881 81.3924 15.2641C80.8484 14.6241 80.1284 14.3041 79.2324 14.3041C78.6404 14.3041 78.1204 14.4481 77.6724 14.7361C77.2244 15.0081 76.8724 15.4321 76.6164 16.0081C76.3764 16.5681 76.2564 17.2721 76.2564 18.1201C76.2564 19.3841 76.5284 20.3441 77.0724 21.0001C77.6164 21.6401 78.3364 21.9601 79.2324 21.9601Z" fill="black"/>
<path d="M91.9565 24.2401C90.9805 24.2401 90.1725 24.0641 89.5325 23.7121C88.8925 23.3441 88.4125 22.8001 88.0925 22.0801C87.7885 21.3601 87.6365 20.4641 87.6365 19.3921V13.5841C87.6365 13.0721 87.7645 12.6961 88.0205 12.4561C88.2765 12.2001 88.6445 12.0721 89.1245 12.0721C89.6045 12.0721 89.9725 12.2001 90.2285 12.4561C90.5005 12.6961 90.6365 13.0721 90.6365 13.5841V19.4401C90.6365 20.2721 90.8045 20.8881 91.1405 21.2881C91.4765 21.6881 92.0125 21.8881 92.7485 21.8881C93.5485 21.8881 94.2045 21.6161 94.7165 21.0721C95.2285 20.5121 95.4845 19.7761 95.4845 18.8641V13.5841C95.4845 13.0721 95.6125 12.6961 95.8685 12.4561C96.1245 12.2001 96.4925 12.0721 96.9725 12.0721C97.4525 12.0721 97.8205 12.2001 98.0765 12.4561C98.3485 12.6961 98.4845 13.0721 98.4845 13.5841V22.6561C98.4845 23.6801 97.9965 24.1921 97.0205 24.1921C96.5565 24.1921 96.1965 24.0641 95.9405 23.8081C95.6845 23.5361 95.5565 23.1521 95.5565 22.6561V20.8321L95.8925 21.5521C95.5565 22.4161 95.0445 23.0801 94.3565 23.5441C93.6845 24.0081 92.8845 24.2401 91.9565 24.2401Z" fill="black"/>
<path d="M106.983 24.2401C105.943 24.2401 105.071 24.0641 104.367 23.7121C103.679 23.3601 103.167 22.8481 102.831 22.1761C102.495 21.4881 102.327 20.6401 102.327 19.6321V14.5201H101.079C100.695 14.5201 100.399 14.4241 100.191 14.2321C99.9829 14.0241 99.8789 13.7441 99.8789 13.3921C99.8789 13.0241 99.9829 12.7441 100.191 12.5521C100.399 12.3601 100.695 12.2641 101.079 12.2641H102.327V10.0801C102.327 9.58412 102.455 9.20812 102.711 8.95212C102.983 8.69612 103.359 8.56812 103.839 8.56812C104.319 8.56812 104.687 8.69612 104.943 8.95212C105.199 9.20812 105.327 9.58412 105.327 10.0801V12.2641H107.871C108.255 12.2641 108.551 12.3601 108.759 12.5521C108.967 12.7441 109.071 13.0241 109.071 13.3921C109.071 13.7441 108.967 14.0241 108.759 14.2321C108.551 14.4241 108.255 14.5201 107.871 14.5201H105.327V19.4641C105.327 20.2321 105.495 20.8081 105.831 21.1921C106.167 21.5761 106.711 21.7681 107.463 21.7681C107.735 21.7681 107.975 21.7441 108.183 21.6961C108.391 21.6481 108.575 21.6161 108.735 21.6001C108.927 21.5841 109.087 21.6481 109.215 21.7921C109.343 21.9201 109.407 22.1921 109.407 22.6081C109.407 22.9281 109.351 23.2161 109.239 23.4721C109.143 23.7121 108.959 23.8801 108.687 23.9761C108.479 24.0401 108.207 24.0961 107.871 24.1441C107.535 24.2081 107.239 24.2401 106.983 24.2401Z" fill="black"/>
<path d="M115.114 24.2401C114.426 24.2401 113.698 24.1681 112.93 24.0241C112.162 23.8801 111.474 23.6321 110.866 23.2801C110.61 23.1201 110.426 22.9361 110.314 22.7281C110.218 22.5041 110.178 22.2881 110.194 22.0801C110.226 21.8561 110.306 21.6641 110.434 21.5041C110.578 21.3441 110.754 21.2401 110.962 21.1921C111.186 21.1441 111.426 21.1841 111.682 21.3121C112.322 21.6161 112.922 21.8321 113.482 21.9601C114.042 22.0721 114.594 22.1281 115.138 22.1281C115.906 22.1281 116.474 22.0001 116.842 21.7441C117.226 21.4721 117.418 21.1201 117.418 20.6881C117.418 20.3201 117.29 20.0401 117.034 19.8481C116.794 19.6401 116.426 19.4881 115.93 19.3921L113.53 18.9361C112.538 18.7441 111.778 18.3841 111.25 17.8561C110.738 17.3121 110.482 16.6161 110.482 15.7681C110.482 15.0001 110.69 14.3361 111.106 13.7761C111.538 13.2161 112.13 12.7841 112.882 12.4801C113.634 12.1761 114.498 12.0241 115.474 12.0241C116.178 12.0241 116.834 12.1041 117.442 12.2641C118.066 12.4081 118.666 12.6401 119.242 12.9601C119.482 13.0881 119.642 13.2561 119.722 13.4641C119.818 13.6721 119.842 13.8881 119.794 14.1121C119.746 14.3201 119.65 14.5121 119.506 14.6881C119.362 14.8481 119.178 14.9521 118.954 15.0001C118.746 15.0321 118.506 14.9841 118.234 14.8561C117.738 14.6001 117.258 14.4161 116.794 14.3041C116.346 14.1921 115.914 14.1361 115.498 14.1361C114.714 14.1361 114.13 14.2721 113.746 14.5441C113.378 14.8161 113.194 15.1761 113.194 15.6241C113.194 15.9601 113.306 16.2401 113.53 16.4641C113.754 16.6881 114.098 16.8401 114.562 16.9201L116.962 17.3761C118.002 17.5681 118.786 17.9201 119.314 18.4321C119.858 18.9441 120.13 19.6321 120.13 20.4961C120.13 21.6641 119.674 22.5841 118.762 23.2561C117.85 23.9121 116.634 24.2401 115.114 24.2401Z" fill="black"/>
<path d="M10.5608 9.6475C12.012 8.83677 15.6809 6.83677 15.8586 5.49493C16.0364 4.1531 16.3446 7.60902 16.4157 8.21347C16.4868 8.81791 16.4394 9.43417 16.2853 10.0268C16.1312 10.6194 15.8586 11.1764 15.4794 11.6623C15.112 12.1483 14.0117 12.8368 14.0117 12.8368C14.0117 12.8368 12.0117 13.8368 8.84233 16.0001C8.84233 16.0001 8.09566 13.6771 8.41566 12.4801C8.74751 11.2949 9.10966 10.4582 10.5608 9.6475Z" fill="white"/>
<path d="M9.45703 17.1954L16.7578 12.8576C17.8007 12.2413 19.0452 12.0636 20.2067 12.3717C21.3681 12.6799 22.3518 13.4503 22.9444 14.5051L15.6437 18.8428C14.6007 19.4591 13.3563 19.6369 12.1948 19.3288C11.0333 19.0206 10.0496 18.2502 9.45703 17.1954Z" fill="white"/>
<path d="M21.8864 22.0161C20.4352 22.8268 16.7664 24.8268 16.5886 26.1686C16.4109 27.5105 16.1027 24.0546 16.0316 23.4501C15.9605 22.8457 16.0079 22.2294 16.162 21.6368C16.316 21.0442 16.5886 20.4872 16.9679 20.0013C17.3353 19.5153 18.4355 18.8268 18.4355 18.8268C18.4355 18.8268 20.4355 17.8268 23.6049 15.6634C23.6049 15.6634 24.3516 17.9864 24.0316 19.1835C23.6998 20.3687 23.3376 21.2054 21.8864 22.0161Z" fill="white"/>
<defs>
<linearGradient id="paint0_linear_6_47" x1="-0.00357352" y1="15.9997" x2="32.005" y2="15.9998" gradientUnits="userSpaceOnUse">
<stop offset="0.00184478" stop-color="#00D95B"/>
<stop offset="1" stop-color="#61C91E"/>
</linearGradient>
</defs>
</svg>